<?xml version="1.0" encoding="UTF-8" standalone="no"?>
<!DOCTYPE svg PUBLIC "-//W3C//DTD SVG 1.1//EN" "http://www.w3.org/Graphics/SVG/1.1/DTD/svg11.dtd">
<svg width="100%" height="100%" viewBox="0 0 614 614" version="1.1" xmlns="http://www.w3.org/2000/svg" xmlns:xlink="http://www.w3.org/1999/xlink" xml:space="preserve" xmlns:serif="http://www.serif.com/" style="fill-rule:evenodd;clip-rule:evenodd;stroke-linejoin:round;stroke-miterlimit:2;">
    <rect x="0" y="0" width="613.789" height="613.789" style="fill:rgb(241,241,241);"/>
    <g transform="matrix(0.756703,0,0,0.756703,74.6666,74.6665)">
        <path d="M456.764,597.974C449.139,589.29 442,580.579 434.789,571.929C428.305,564.153 421.695,556.481 415.227,548.692C409.633,541.955 404,535.242 398.68,528.292C393.091,520.99 388.646,512.623 382.21,506.219C377.193,501.227 373.496,495.63 370.118,489.795C363.52,478.4 356.144,467.216 353.416,454.074C351.859,446.568 351.098,438.851 350.583,431.188C349.931,421.499 350.429,411.713 349.445,402.07C348.374,391.565 343.833,382.356 337.039,374.065C331.704,367.555 327.394,360.214 322.454,353.369C319.312,349.016 315.852,344.893 312.532,340.669C312.439,340.551 312.28,340.472 312.219,340.343C308.516,332.512 302.131,331.146 294.076,331.614C289.248,331.894 285.603,327.67 283.422,323.536C281.29,319.494 279.733,314.971 278.881,310.478C277.842,304.994 279.796,297.867 285.869,293.634C291.468,289.732 296.508,285.038 302.003,280.975C307.165,277.157 312.324,273.174 317.99,270.241C324.07,267.094 330.438,269.916 335.365,273.13C339.667,275.936 344.399,279.624 345.445,285.541C345.815,287.637 345.474,289.85 345.626,291.997C346.092,298.569 351.006,302.665 354.679,307.28C363.523,318.395 372.424,329.508 381.99,339.993C391.795,350.739 403.366,358.95 418.188,361.942C427.427,363.807 436.64,366.226 445.508,369.394C454.979,372.778 463.761,377.756 471.578,384.301C477.029,388.865 483.286,392.587 488.203,397.638C493.737,403.322 498.131,410.11 503.096,416.358C507.544,421.954 512.18,427.402 516.577,433.036C521.555,439.414 526.37,445.92 531.238,452.384C536.536,459.418 541.822,466.461 547.099,473.512C556.956,486.681 566.446,500.15 576.84,512.88C580.63,517.523 581.979,522.964 584.635,527.913C587.319,532.916 583.938,537.959 582.068,542.716C578.625,551.472 572.007,558.057 566.257,565.226C555.69,578.399 542.09,588.139 528.336,597.452C515.365,606.234 501.049,612.017 485.061,613.63C477.265,614.417 471.723,612.314 466.736,606.704C463.891,603.503 460.412,600.865 456.764,597.974ZM485.828,605.694C492.816,604.332 499.946,603.451 506.743,601.443C511.498,600.038 515.865,597.213 520.236,594.724C521.001,594.289 521.575,591.902 521.099,591.261C520.26,590.129 518.294,588.751 517.238,589.045C512.405,590.393 507.773,592.443 502.961,593.886C501.511,594.32 499.526,593.991 498.146,593.297C497.159,592.801 496.606,591.171 496.168,589.937C495.795,588.886 495.863,587.678 495.736,586.539C494.793,586.931 493.762,587.188 492.921,587.738C486.438,591.973 485.912,591.913 479.812,587.005C477.422,585.082 474.808,584.423 471.8,586.042C469.602,587.225 467.12,587.867 464.842,588.919C462.817,589.854 462.258,591.247 464.07,593.029C466.332,595.252 468.569,597.501 470.802,599.755C474.818,603.809 479.105,607.233 485.828,605.694ZM502.176,586.621C502.282,587.03 502.449,587.803 502.486,587.796C508.069,586.867 513.579,585.681 517.935,581.699C518.594,581.097 518.856,580.06 519.302,579.224C518.113,578.814 516.575,577.711 515.793,578.106C511.157,580.45 506.696,583.14 502.176,586.621ZM570.295,549.383C571.793,546.371 573.169,543.292 574.818,540.365C577.105,536.304 577.218,528.824 575.012,525.903C573.033,523.28 571.164,520.563 569.408,517.786C566.768,513.611 564.467,513.21 561.06,516.897C556.654,521.666 552.587,526.751 548.145,531.484C545.518,534.281 542.348,536.564 539.648,539.3C538.99,539.967 539.219,541.51 539.04,542.651C540.011,542.624 540.984,542.548 541.953,542.582C543.78,542.644 545.927,542.194 547.363,542.995C549.967,544.447 552.271,554.309 551.397,557.414C549.865,562.857 546.283,566.615 541.859,569.84C536.607,573.67 531.455,577.638 526.311,581.613C525.672,582.107 525.351,583.011 524.882,583.725C525.519,583.934 526.224,584.433 526.782,584.304C530.632,583.408 534.874,583.114 538.175,581.213C542.407,578.777 546.169,575.3 549.611,571.762C556.541,564.636 563.118,557.165 570.295,549.383ZM441.342,566.383C444.202,570.237 447.054,574.094 449.905,577.953C454.028,583.534 457.7,584.414 463.962,581.233C464.839,580.787 465.636,580.115 466.557,579.835C481.112,575.405 493.72,567.644 505.939,558.641C519.036,548.992 531.321,538.566 542.677,526.998C549.266,520.286 556.036,513.551 556.614,503.309C556.719,501.437 556.717,499.004 555.674,497.712C549.034,489.49 541.957,481.623 535.28,473.431C528.036,464.545 521.06,455.44 513.987,446.415C507.904,438.655 501.891,430.839 495.76,423.117C493.542,420.323 491.426,420.61 489.111,423.408C483.593,430.075 477.854,436.559 472.204,444.026C468.478,447.449 464.873,451.017 461,454.266C452.724,461.208 444.502,468.24 435.891,474.751C428.735,480.162 421.321,485.351 413.524,489.76C407.114,493.386 401.239,498.788 392.925,498.238C392.039,498.18 389.942,501.275 390.183,501.601C393.805,506.527 397.865,511.128 401.542,516.016C407.21,523.55 413.208,530.92 418.051,538.962C420.854,533.765 423.699,528.588 426.769,523.552C427.513,522.331 429.602,521.931 431.072,521.153C430.917,522.607 431.136,524.237 430.546,525.486C427.639,531.646 424.559,537.725 421.342,544.003C423.312,546.629 425.557,548.885 428.461,550.694C430.886,545.354 432.74,539.734 434.99,534.299C435.469,533.144 436.472,532.077 437.494,531.322C438.154,530.835 439.289,530.991 440.21,530.859C440.298,531.798 440.65,532.81 440.417,533.661C439.981,535.258 439.206,536.761 438.572,538.757C436.538,544.269 434.613,549.41 432.4,554.406C434.248,556.864 436.09,559.326 437.927,561.792C438.963,559.751 440.183,557.739 441.422,555.573C444.299,555.307 445.604,556.152 444.336,559.05C443.283,561.456 442.669,564.088 441.371,566.336C441.362,566.352 441.352,566.368 441.342,566.383ZM524.428,575.268C524.995,574.321 525.562,573.374 526.129,572.427C525.643,572.163 524.873,571.558 524.716,571.689C523.494,572.708 522.362,573.844 521.286,575.019C521.158,575.16 521.534,575.761 521.676,576.148C522.291,575.855 522.905,575.561 524.428,575.268ZM540.777,549.837C539.105,550.298 537.141,550.348 535.813,551.293C530.757,554.889 525.845,558.697 520.999,562.576C516.658,566.05 512.448,569.691 508.259,573.348C507.743,573.799 507.71,574.802 507.453,575.549C508.289,575.434 509.305,575.586 509.933,575.163C516.79,570.535 523.785,566.075 530.324,561.028C534.334,557.934 537.62,553.902 540.777,549.837ZM534.419,563.461C533.16,565.532 531.901,567.603 530.642,569.674C532.802,568.519 535.123,567.576 537.054,566.118C538.026,565.385 538.292,563.716 538.877,562.47C537.543,562.649 536.208,562.828 534.419,563.461ZM491.528,558.352L435.786,489.701L432.517,492.356L488.259,561.006L491.528,558.352ZM495.389,482.959C502.69,492.559 501.783,506.631 491.542,514.946L476.831,526.891L498.066,553.043L494.797,555.698L439.055,487.047L442.325,484.393L453.768,498.486C453.31,490.911 456.732,483.543 462.344,478.986L462.578,478.799C465.492,476.492 468.708,475.04 471.991,474.339C480.263,472.539 489.227,475.352 494.923,482.367L495.389,482.959ZM469.211,470.699L469.198,470.709C469.835,470.522 470.477,470.358 471.123,470.219C477.602,468.844 484.305,469.943 489.943,472.952L489.915,472.859C493.013,474.523 495.839,476.814 498.192,479.713C505.353,488.532 506.116,500.475 501.068,509.905L501.104,509.894L501.19,509.824C499.525,512.918 497.2,515.776 494.197,518.215L482.755,527.505L501.335,550.389L504.605,547.735L488.678,528.12L496.851,521.484C505.158,514.739 508.961,505.214 508.583,495.849L508.498,495.745C508.25,489.148 505.94,482.574 501.461,477.058C494.952,469.041 485.311,465.049 475.723,465.411L475.682,465.444C469.229,465.652 462.7,467.849 457.035,472.448C454.272,474.692 451.898,477.435 450.023,480.513L448.863,479.084L445.594,481.738L450.97,488.36C452.652,483.391 455.703,478.954 459.69,475.717C462.651,473.313 465.884,471.666 469.211,470.699ZM465.095,482.177L464.999,482.255C457.701,488.18 454.929,499.916 462.232,508.911L474.177,523.622L488.888,511.677L488.983,511.6C496.858,505.122 498.17,493.577 492.035,485.506L491.654,485.021C487.288,479.644 479.898,476.956 472.888,478.454C470.158,479.049 467.521,480.258 465.19,482.102L465.095,482.177ZM474.792,517.698L465.501,506.256C459.821,499.261 461.977,490.133 467.653,485.524L467.802,485.405C469.653,483.94 471.695,483.017 473.78,482.57C479.046,481.419 484.757,483.208 488.385,487.676L488.682,488.053C493.309,494.139 492.754,503.045 486.311,508.344L486.233,508.408L474.792,517.698ZM470.361,488.75L470.307,488.793C466.253,492.085 464.713,498.605 468.77,503.602L475.406,511.775L483.579,505.139L483.632,505.096C487.901,501.584 488.699,495.392 485.567,490.928L485.195,490.429L485.116,490.33C482.693,487.346 478.593,485.852 474.701,486.679C473.181,487.009 471.712,487.681 470.413,488.708L470.361,488.75ZM352.315,379.54C353.345,381.039 353.877,382.83 354.55,384.518C356.26,388.802 358.785,392.996 359.37,397.438C360.199,403.734 359.938,410.245 359.514,416.622C358.246,435.677 362.458,453.555 370.747,470.54C373.891,476.981 377.676,483.116 381.305,489.31C382.65,491.606 385.132,492.696 387.388,491.382C389.1,490.384 390.221,488.205 391.33,486.384C392.639,484.236 393.638,481.901 394.798,479.66C395.444,478.412 396.974,476.43 396.669,476.096C395.604,474.935 393.927,474.318 392.452,473.555C391.585,473.107 390.659,472.773 389.76,472.388C390.371,471.639 390.83,470.533 391.617,470.2C396.381,468.189 401.223,466.366 406.028,464.454C407.326,463.937 408.73,463.53 409.844,462.734C417.447,457.305 425.006,451.815 432.514,446.256C433.369,445.624 434.79,444.025 434.455,443.515C434.119,443.005 431.506,442.688 430.501,443.199C427.728,444.607 425.165,446.453 422.598,448.238C413.638,454.469 405.112,461.454 394.654,465.132C392.591,465.857 390.071,465.488 387.79,465.291C386.826,465.208 385.936,464.265 385.012,463.713C385.616,462.904 386.171,462.052 386.837,461.299C387.546,460.497 389.394,459.862 389.128,459.041C388.862,458.219 386.663,456.955 385.242,456.37C384.207,455.944 382.849,456.207 381.647,456.304C379.239,456.499 377.784,456.037 377.606,453.062C377.39,449.45 376.523,445.876 375.927,442.288C375.637,440.544 374.677,438.604 375.142,437.1C376.53,432.609 376,428.735 373.311,424.878C372.723,424.034 372.983,421.663 373.735,421.007C375.502,419.467 377.862,418.629 379.861,417.322C380.812,416.7 382.347,415.57 382.287,414.804C382.227,414.037 380.524,413.225 379.501,412.723C376.57,411.285 373.915,411.32 371.859,414.397C371.529,414.891 369.971,415.306 369.724,415.114C369.477,414.921 370.181,413.873 370.378,413.242C371.93,408.288 374.179,403.413 374.771,398.344C375.161,395.007 376.682,393.15 378.761,391.331C380.231,390.044 382.146,389.28 383.76,388.138C384.591,387.55 385.198,386.645 385.906,385.883C384.856,385.131 383.813,383.793 382.754,383.78C381.514,383.764 380.17,384.775 379.032,385.571C377.364,386.737 376.002,388.487 374.199,389.268C372.83,389.86 369.949,389.871 369.337,389.296C368.725,388.721 369.916,386.85 370.525,385.816C371.329,384.453 372.606,383.367 373.396,381.998C374.039,380.885 375.125,378.717 374.673,378.284C374.222,377.851 371.956,378.883 370.686,379.401C370.04,379.664 369.632,380.465 369.055,380.949C367.603,382.167 365.768,384.829 364.644,384.535C363.52,384.241 363.082,380.973 362.313,379.187C362.258,379.059 362.328,378.884 362.302,378.737C361.838,376.155 360.225,373.026 365.356,373.475C365.992,373.531 367.873,371.096 367.56,370.262C367.247,369.429 364.899,368.712 363.478,368.474C362.759,368.353 361.896,369.734 360.988,369.934C359.797,370.195 357.583,370.527 357.245,369.938C356.906,369.348 358.253,367.491 358.956,366.394C359.417,365.673 360.488,365.303 360.842,364.563C361.286,363.635 362.034,362.049 361.461,361.438C360.888,360.828 358.736,360.804 357.404,360.901C356.221,360.987 354.4,362.641 353.924,362.076C353.447,361.51 353.712,358.508 354.546,357.51C357.61,353.846 353.907,352.119 352.552,349.942C351.001,347.451 348.864,347.456 346.637,349.66C345.928,350.362 343.839,350.837 343.412,350.402C342.641,349.617 342.313,348.041 342.419,346.85C342.524,345.672 343.581,344.604 343.853,343.404C343.996,342.771 343.507,341.814 343.003,341.294C342.765,341.048 341.695,341.309 341.226,341.649C340.379,342.262 339.782,343.223 338.929,343.824C338.09,344.415 336.424,345.304 336.228,345.082C335.324,344.061 334.247,342.678 334.289,341.461C334.344,339.885 335.49,338.373 335.997,336.779C336.308,335.801 336.914,334.197 336.437,333.69C335.96,333.182 334.095,333.359 333.136,333.734C330.379,334.812 328.383,335.562 326.313,332.033C324.681,329.249 321.525,327.259 318.778,325.288C317.91,324.666 316.18,325.247 314.844,325.277C314.928,326.417 314.648,327.768 315.163,328.659C316.8,331.49 318.626,334.229 320.572,336.86C325.037,342.899 329.604,348.863 334.153,354.84C340.195,362.779 348.915,374.593 352.315,379.54ZM426.791,464.007C428.953,462.645 431.19,461.389 433.262,459.901C441.437,454.033 449.938,448.534 457.555,442.007C461.861,438.316 465.483,434.322 470.635,431.241C476.325,427.839 479.955,420.942 484.366,415.474C486.927,412.299 486.286,408.668 483.954,406.019C480.546,402.148 476.621,398.661 472.578,395.434C459.758,385.204 445.293,377.902 429.823,372.678C421.566,369.889 412.913,368.243 404.725,365.288C400.823,363.879 397.632,360.553 394.046,358.207C381.222,349.817 372.088,337.75 362.344,326.318C356.874,319.902 351.989,312.984 346.474,306.61C342.478,301.992 339.096,302.513 335.965,307.891C334.718,310.032 334.124,312.573 333.414,314.985C333.322,315.298 334.236,316.148 334.829,316.383C340.632,318.679 340.62,318.643 337.251,323.798C336.776,324.525 336.615,325.458 336.309,326.296C337.342,326.548 338.567,327.286 339.376,326.968C343.015,325.535 343.751,327.61 344.168,330.452C344.308,331.407 344.518,332.532 345.114,333.212C350.29,339.119 355.573,344.931 360.798,350.795C363.448,353.769 366.784,356.418 368.518,359.864C372.952,368.672 380.825,374.079 388.048,379.791C396.856,386.756 407.045,391.742 417.248,396.734C430.966,403.446 443.533,412.344 454.342,423.414C460.065,429.276 460.421,432.907 454.077,438.345C446.967,444.44 439.228,449.815 431.656,455.356C424.599,460.519 417.245,465.288 410.332,470.632C407.047,473.171 408.594,481.414 412.247,483.021C412.566,483.161 413.173,482.955 413.504,482.715C421.398,476.978 429.278,471.223 437.136,465.437C437.671,465.044 438.011,464.386 438.442,463.851C437.73,463.759 436.81,463.335 436.339,463.63C433.438,465.448 430.68,467.493 427.794,469.337C423.617,472.006 419.397,474.611 415.128,477.128C414.525,477.484 413.536,477.185 412.726,477.19C412.736,476.263 412.404,475.113 412.832,474.461C413.54,473.381 414.661,472.513 415.743,471.747C419.241,469.272 422.801,466.883 426.791,464.007ZM400.452,472.181C400.165,472.802 399.877,473.423 399.59,474.044C400.317,473.892 401.044,473.739 401.772,473.586C401.483,472.967 401.195,472.347 400.452,472.181ZM404.993,448.567C402.696,450.284 400.323,451.906 398.098,453.711C397.327,454.337 395.999,455.669 396.31,456.232C396.621,456.796 398.813,457.261 399.965,457.093C401.274,456.903 402.59,456.092 403.693,455.269C408.888,451.393 414.087,447.513 419.127,443.44C421.437,441.573 423.504,439.357 425.408,437.072C425.846,436.546 425.383,434.396 424.997,434.057C424.61,433.717 423.656,434.617 423.088,435.036C417.196,439.378 409.158,445.454 404.993,448.567ZM397.727,439.484C395.241,441.445 393.128,443.865 391.077,446.268C390.461,446.99 390.384,449.006 390.551,449.565C390.696,450.053 391.712,449.841 392.077,449.622C395.347,447.655 398.763,445.858 401.766,443.534C409.804,437.315 417.667,430.87 425.572,424.482C426.368,423.839 427.984,422.784 427.675,422.203C427.365,421.622 424.987,420.879 423.714,420.995C422.599,421.097 421.574,422.298 420.531,423.043C413.078,428.368 402.636,435.614 397.727,439.484ZM397.273,431.764C396.346,432.457 393.092,434.429 392.495,435.161C392.167,435.563 393.667,436.184 393.695,436.155C395.079,434.73 396.603,433.028 398.181,431.764C399.721,430.531 402.487,429.256 403.163,428.571C403.467,428.263 402.289,427.619 402.237,427.658C400.809,428.727 399.422,429.853 398.057,431.005C397.868,431.165 397.565,431.547 397.273,431.764ZM382.287,434.035C382.043,434.41 382.537,435.46 382.916,435.222C384.112,434.473 387.328,431.489 389.461,429.542C390.112,428.948 391.317,427.63 391.032,427.34C390.747,427.049 388.494,427.205 387.751,427.798C385.773,429.378 383.093,432.798 382.287,434.035ZM446.773,429.494C446.804,429.188 443.484,428.723 442.789,428.936C442.201,429.116 441.992,430.686 442.601,430.771C443.265,430.864 446.741,429.8 446.773,429.494ZM389.553,413.145C389.36,414.016 390.104,416.099 390.771,416.18C391.438,416.26 392.74,414.575 393.555,413.627C394.142,412.945 395.142,411.643 394.872,411.198C394.601,410.753 392.824,410.715 391.931,410.957C391.188,411.159 389.746,412.275 389.553,413.145ZM416.346,403.608C416.505,402.758 413.171,402.468 411.887,402.869C410.859,403.191 410.143,404.953 409.632,406.215C409.482,406.586 410.862,408.018 410.935,407.973C412.938,406.748 416.188,404.459 416.346,403.608ZM397.727,399.521C397.821,399.717 400.574,399.234 401.031,398.942C401.397,398.708 400.567,397.747 400.47,397.768C399.539,397.972 397.634,399.326 397.727,399.521ZM385.466,394.526C386.062,394.083 387.595,392.191 388.598,390.973C388.627,390.937 387.99,389.708 387.618,389.985C387.022,390.428 385.876,392.408 385.021,393.631C384.951,393.731 385.199,394.725 385.466,394.526ZM127.068,347.297C124.927,340.324 125.088,334.756 130.674,329.338C138.318,321.923 146.817,316.538 157.134,314.213C158.685,313.863 162.009,315.053 162.395,315.867C162.781,316.681 160.632,318.322 159.452,319.096C152.69,323.532 145.721,327.663 139.088,332.278C137.215,333.581 135.995,336.048 134.946,338.209C134.439,339.256 134.519,341.322 135.23,342.044C136.172,343.001 138.292,343.852 139.38,343.421C143.121,341.942 146.526,340.322 149.377,336.728C154.51,330.258 160.719,324.365 170.069,324.657C171.19,324.692 172.593,325.396 173.254,326.258C173.567,326.667 172.699,328.487 171.923,329.145C166.131,334.058 160.18,338.782 154.383,343.689C151.556,346.082 149.183,349.059 146.202,351.212C139.562,356.006 131.164,354.338 127.068,347.297ZM290.554,318.687C294.035,321.684 296.896,319.579 299.187,317.167C301.357,314.884 299.178,313.077 297.684,311.228C292.771,305.146 294.639,298.056 301.741,295.73C304.552,294.81 307.441,294.069 310.348,293.535C311.309,293.358 313.197,293.907 313.488,294.392C313.779,294.878 312.406,295.698 312.092,296.447C311.523,297.808 310.427,300.159 310.659,300.646C310.891,301.132 312.575,299.853 313.485,299.366C314.358,298.899 315.112,298.036 316.02,297.852C316.986,297.656 318.694,297.722 319.105,298.192C319.516,298.663 318.948,300.032 318.487,300.676C316.549,303.382 314.454,305.975 312.438,308.625C312.147,309.006 311.705,309.784 311.784,309.852C312.311,310.304 313.099,311.03 313.542,310.883C314.587,310.536 315.588,309.866 316.429,309.125C322.094,304.133 327.47,298.772 333.445,294.191C336.542,291.817 339.144,289.359 338.168,285.654C336.728,280.184 331.058,275.417 326.905,276.681C321.487,278.329 316.424,281.366 311.473,284.26C307.162,286.78 303.444,290.347 299.066,292.714C290.251,297.479 285.922,309.169 290.554,318.687ZM41.466,225.818C43.099,233.502 47.699,237.803 54.452,241.192C66.79,247.386 77.721,241.863 89.105,238.639C94.689,237.058 100.41,235.955 106.078,234.68C113.783,232.946 121.45,233.105 128.812,236.047C133.91,238.084 137.349,244.684 133.015,250.934C128.716,257.135 122.822,261.527 116.57,265.697C112.627,268.327 109.448,272.206 106.293,275.843C105.503,276.754 105.733,279.016 106.174,280.447C108.16,286.889 114.326,290.011 120.494,288.064C122.785,287.34 125.357,287.339 127.502,286.356C132.597,284.021 137.394,281.021 142.531,278.799C149.224,275.905 155.552,271.66 163.277,271.943C167.452,272.096 171.154,273.603 173.044,277.583C173.974,279.543 173.907,282.146 170.71,281.836C162.003,280.991 154.891,284.307 147.616,288.718C142.218,291.99 135.136,292.484 129.737,295.756C123.954,299.26 118.138,299.096 112.041,299.171C107.474,299.227 104.009,297.499 101.585,293.506C100.674,292.006 99.263,290.763 97.924,289.578C93.351,285.529 93.73,277.282 95.293,273.264C98.625,264.696 106.167,260.755 113.468,256.389C117.175,254.171 120.386,251.116 123.781,248.388C125.997,246.608 125.731,245.331 122.923,244.586C121.025,244.083 119.102,242.787 117.303,242.966C111.295,243.565 105.198,244.149 99.391,245.696C89.638,248.295 80.252,252.934 70.385,254.231C62.87,255.219 54.68,253.983 47.119,250.686C34.476,245.174 27.733,235.977 28.178,222.128C28.445,213.807 31.257,206.278 38.472,201.085C44.316,196.878 50.227,192.739 55.811,188.204C60.563,184.343 66.177,183.471 71.803,183.015C77.867,182.523 84.012,182.678 90.101,182.964C96.901,183.283 103.422,182.348 109.699,179.804C112.632,178.615 115.105,179.427 116.04,182.123C117.087,185.14 114.298,185.789 112.042,186.557C101.005,190.312 89.584,190.404 78.139,190.148C70.346,189.974 64.458,193.891 59.014,198.766C54.589,202.728 50.255,206.795 45.969,210.908C43.836,212.956 40.709,214.563 39.918,217.405C39.123,220.261 40.447,222.907 41.466,225.818ZM191.327,219.46C190.423,218.094 189.747,216.954 189.07,215.814C190.513,215.6 192.304,214.733 193.338,215.285C198.071,217.811 202.752,220.502 207.153,223.564C215.293,229.228 223.284,235.114 231.217,241.067C234.847,243.79 238.215,246.868 241.665,249.828C246.248,253.761 250.866,257.661 255.297,261.76C256.144,262.544 256.195,264.188 256.614,265.435C255.368,265.474 253.878,265.972 252.927,265.463C250.67,264.254 248.367,262.857 246.614,261.028C234.936,248.845 220.828,239.794 207.179,230.154C202.06,226.539 196.768,223.169 191.327,219.46ZM171.8,253.974C165.226,255.191 163.203,253.871 161.547,247.986C160.947,245.853 159.458,243.875 159.27,241.747C159.084,239.655 159.492,237.101 160.623,235.407C162.031,233.3 164.2,232.703 167.343,233.403C176.972,235.546 177.648,239.358 177.791,247.315C177.849,250.529 176.011,253.452 171.8,253.974ZM171.118,247.389C172.666,243.795 170.239,242.189 167.594,241.177C166.843,240.889 164.641,242.179 164.445,243.047C163.704,246.342 166.27,247.188 168.801,247.774C169.395,247.912 170.042,247.826 171.118,247.389ZM287.148,225.364C280.834,212.39 274.626,199.698 268.693,186.88C262.354,173.186 256.201,159.404 250.111,145.597C246.786,138.059 243.746,130.396 240.616,122.773C240.192,121.739 239.751,120.612 239.749,119.528C239.747,117.947 240.136,116.366 240.358,114.784C241.649,115.901 243.534,116.763 244.141,118.175C250.046,131.902 255.505,145.824 261.554,159.486C267.722,173.417 274.451,187.099 280.856,200.927C285.966,211.959 290.981,223.036 295.955,234.13C296.31,234.921 295.984,236.018 295.975,236.973C295.031,236.615 293.645,236.535 293.218,235.854C291.13,232.521 289.298,229.028 287.148,225.364ZM140.692,208.334C138.687,206.421 135,204.671 137.857,201.926C140.219,199.657 143.627,200.671 145.336,203.612C146.268,205.216 146.098,207.459 146.424,209.414C144.665,209.054 142.906,208.694 140.692,208.334ZM212.444,118.417C216.511,127.177 220.422,135.564 224.679,143.772C233.021,159.855 241.558,175.837 250.007,191.865C250.267,192.358 250.617,192.894 250.622,193.413C250.635,194.962 250.496,196.513 250.416,198.064C249.263,197.24 247.78,196.645 247.022,195.549C245.016,192.647 243.215,189.589 241.527,186.487C234.942,174.386 228.222,162.352 221.952,150.089C215.512,137.494 209.474,124.69 203.456,111.885C202.818,110.528 203.496,108.552 203.563,106.862C205.025,107.853 206.888,108.554 207.862,109.898C209.664,112.388 210.946,115.254 212.444,118.417ZM36.47,148.617C40.635,147.551 44.919,145.955 48.153,149.381C51.35,152.768 54.218,156.713 53.47,161.895C53.015,165.047 46.727,170.449 43.243,171.116C38.44,172.035 36.928,168.589 35.358,165.281C34.404,163.27 33.801,161.091 32.83,159.09C30.422,154.125 31.208,151.631 36.47,148.617ZM189.738,162.922C188.855,164.738 187.973,166.101 187.09,167.463C185.854,166.605 184.323,165.956 183.502,164.802C183.083,164.213 183.927,161.787 184.217,161.784C186.054,161.764 187.897,162.189 189.738,162.922ZM39.876,160.651C40.23,161.553 42.964,162.097 44.54,162.176C45.051,162.201 46.419,159.603 46.084,159.128C45.278,157.983 43.728,156.842 42.417,156.767C41.629,156.722 39.522,159.75 39.876,160.651ZM294.187,145.665C290.558,152.165 286.904,154.062 281.635,151.894C279.872,151.169 278.052,149.176 277.417,147.358C274.518,139.059 278.457,132.723 286.046,132.958C290.925,133.109 292.2,137.316 294.078,140.581C294.754,141.756 294.187,143.647 294.187,145.665ZM73.709,133.631C79.629,136.743 88.327,139.262 95.48,142.073C96.775,142.582 98.28,143.382 98.933,144.492C99.753,145.888 100.771,148.543 100.176,149.397C99.581,150.251 96.296,150.371 95.361,149.615C89.067,144.528 81.144,144.362 73.953,142.056C66.348,139.618 59.022,136.951 52.998,131.225C45.492,124.089 48.949,114.393 56.219,109.376C61.193,105.943 65.997,106.703 71.871,108.678C83.965,112.746 89.502,123.395 97.643,131.417C98.49,132.251 98.788,135.286 98.165,135.968C97.542,136.649 94.896,136.239 93.907,135.504C90.035,132.629 86.559,129.22 82.687,126.344C78.462,123.206 74.174,120.006 69.487,117.697C67.249,116.595 63.818,116.834 61.298,117.634C57.497,118.84 57.081,121.039 59.96,123.402C64.288,126.954 68.652,130.973 73.709,133.631ZM283.742,141.124C284.071,142.638 284.401,144.151 284.73,145.665C285.46,144.935 286.93,143.789 286.794,143.546C286.176,142.448 285.104,141.605 283.742,141.124ZM180.882,117.736C177.368,120.537 174.376,123.714 170.708,125.511C167.164,127.247 165.25,123.379 163.123,121.267C158.349,116.524 157.781,104.848 162.949,101.205C171.573,95.125 177.963,98.838 181.368,107.651C182.462,110.481 181.261,114.198 180.882,117.736ZM173.843,112.968C175.21,110.266 173.309,108.984 171.344,108.598C170.392,108.411 168.105,110.068 168.134,110.826C168.204,112.679 169.27,114.495 169.935,116.326C171.086,115.358 172.238,114.39 173.843,112.968ZM236.058,36.675C235.823,47.055 239.315,56.231 241.89,65.579C242.247,66.875 243.425,68.017 244.41,69.051C246.354,71.09 247.784,70.931 248.813,68.03C250.167,64.214 251.107,59.979 253.451,56.839C259.514,48.711 265.258,45.684 274.921,52.006C279.362,54.911 280.513,58.95 280.439,63.392C280.347,68.95 279.438,74.504 278.667,80.029C278.528,81.029 277.358,81.885 276.664,82.808C275.915,82.184 274.814,81.703 274.492,80.907C273.864,79.35 273.486,77.634 273.332,75.953C272.925,71.499 272.959,66.986 272.259,62.585C271.974,60.794 270.473,58.095 269.122,57.825C266.97,57.394 263.446,57.869 262.334,59.343C259.407,63.222 257.436,67.83 255.141,72.178C253.351,75.571 252.104,79.309 247.145,79.422C241.934,79.54 239.454,76.269 236.861,72.525C230.124,62.799 228.979,51.478 226.834,40.333C225.705,34.463 226.185,28.152 221.658,22.937C217.493,18.14 207.226,14.317 202.254,17.802C199.748,19.558 197.88,23.218 197.168,26.346C195.45,33.896 194.694,41.66 193.334,49.3C192.321,54.985 193.092,61.202 188.322,65.832C181.514,72.443 178.185,70.945 171.634,66.876C168.736,65.075 166.56,61.582 164.999,58.396C164.287,56.941 165.856,54.368 166.391,52.302C167.851,53.335 169.419,54.251 170.737,55.442C171.671,56.287 172.052,57.85 173.062,58.486C175.304,59.895 177.786,60.923 180.169,62.106C181.542,58.748 183.575,55.501 184.161,52.011C185.743,42.592 186.273,32.984 188.123,23.629C188.933,19.535 191.41,15.454 194.066,12.11C199.61,5.128 213.371,3.179 223.672,10.045C230.787,14.787 233.879,21.394 235.141,29.336C235.504,31.622 235.756,33.925 236.058,36.675ZM111.401,33.269C118.203,40.07 118.541,40.291 113.339,48.267C109.081,54.794 104.107,60.897 99.036,66.834C95.756,70.673 94.518,70.277 91.573,66.13C88.499,61.8 85.472,57.431 82.244,53.217C80.187,50.533 77.818,50.204 75.092,52.72C67.704,59.539 53.281,54.723 51.583,44.614C50.308,37.026 52.364,30.651 56.791,24.785C61.849,18.083 66.82,11.296 72.242,4.896C76.275,0.135 81.869,-1.386 87.574,1.366C93.072,4.018 99.572,5.91 101.705,12.759C102.328,14.763 103.153,17.786 102.191,19.014C97.979,24.388 100.827,27.225 105.25,29.824C107.186,30.962 109.197,31.973 111.401,33.269ZM99.821,60.744C97.942,59.47 96.096,58.142 94.146,56.989C93.884,56.835 92.609,57.823 92.625,57.852C93.469,59.466 94.122,61.383 95.453,62.447C96.046,62.921 98.02,61.667 99.821,60.744ZM69.394,50.299C71.281,49.017 73.368,47.949 75.016,46.411C79,42.693 79.385,42.733 82.633,47.106C84.059,49.026 85.965,50.604 87.744,52.239C88.172,52.633 88.961,52.634 89.584,52.816C89.534,52.299 89.684,51.608 89.406,51.294C86.374,47.868 83.377,44.397 80.102,41.214C79.512,40.64 77.514,40.955 76.493,41.487C73.369,43.115 70.483,45.207 67.331,46.767C66.397,47.23 64.515,46.972 63.702,46.289C58.804,42.172 59.668,35.191 65.35,30.695C68.363,28.311 71.071,27.836 73.853,31.048C74.416,31.699 75.647,32.124 76.541,32.079C82.408,31.78 88.184,31.222 91.19,24.923C91.798,23.648 92.749,22.482 93.737,21.453C98.364,16.636 98.588,14.961 93.371,10.82C84.856,4.06 79.407,3.309 72.555,11.732C71.743,12.73 71.042,13.82 70.304,14.877C66.136,20.857 61.614,26.629 57.92,32.89C54.973,37.883 55.086,43.527 58.547,48.414C61.108,52.031 65.081,51.686 69.394,50.299ZM97.096,42.578C97.702,43.982 98.121,45.51 98.956,46.759C100.218,48.647 101.77,50.34 103.198,52.115C104.65,50.9 106.365,49.892 107.508,48.435C112.813,41.667 112.242,39.303 104.518,34.864C103.917,34.518 103.27,34 102.642,33.996C100.533,33.984 97.536,33.349 96.508,34.46C94.689,36.426 94.126,39.494 97.096,42.578Z" style="fill:rgb(38,38,38);fill-rule:nonzero;"/>
    </g>
</svg>
