<svg width="489" height="489" viewBox="0 0 489 489" fill="none" xmlns="http://www.w3.org/2000/svg">
<g clip-path="url(#clip0_315_3)">
<path d="M156.096 238.871C153.027 228.286 150.01 218.103 146.868 207.959C145.225 202.654 143.348 197.422 141.602 192.148C140.458 188.694 140.669 185.775 143.663 182.977C152.274 174.93 161.44 167.712 171.972 162.339C173.575 161.52 175.244 160.79 176.949 160.219C182.102 158.491 183.243 157.002 181.992 151.876C179.709 142.529 176.867 133.313 174.749 123.932C172.92 115.83 171.801 107.569 170.307 99.39C169.861 96.9503 169.923 93.831 168.433 92.3472C167.149 91.0681 163.538 90.7405 161.742 91.6122C155.676 94.5559 149.676 97.8204 144.183 101.713C137.614 106.369 131.496 111.687 125.395 116.964C123.788 118.355 122.773 120.562 121.834 122.558C120.902 124.539 119.911 124.18 119.173 122.771C118.164 120.843 117.476 118.733 116.77 116.66C113.396 106.757 109.926 96.8834 106.762 86.913C104.565 79.988 102.809 72.923 100.856 65.9205C100.298 63.9197 99.7884 61.9041 99.1732 59.9211C97.1757 53.4821 98.8423 49.4302 104.333 45.474C109.341 41.8659 113.965 37.7287 118.802 33.8802C123.427 30.2002 128.253 27.0094 134.1 25.3205C137.511 24.3353 140.426 21.7164 143.807 20.5202C148.086 19.0066 152.566 17.9277 157.044 17.1389C163.598 15.9843 170.202 14.8816 176.831 14.4442C183.891 13.9782 191.045 13.8399 198.082 14.4388C204.336 14.9709 210.646 16.1908 216.645 18.0367C225.26 20.6875 233.629 24.1445 242.077 27.3257C253.66 31.6874 265.336 35.8359 276.739 40.6282C282.446 43.0262 287.764 46.4474 293.033 49.7625C302.276 55.577 312.035 60.2531 321.971 64.7704C332.242 69.44 342.853 72.9961 353.45 76.6759C355.911 77.5305 358.594 77.8613 361.206 78.1358C365.26 78.5618 369.379 79.2325 373.402 78.9198C386.571 77.8963 399.223 74.8958 410.57 67.6917C412.545 66.4373 414.664 65.4036 416.609 64.1072C418.797 62.649 421.036 61.1936 422.946 59.4083C426.816 55.7906 430.628 52.0863 434.178 48.1587C436.85 45.2021 438.909 41.6917 441.58 38.734C442.678 37.5178 444.616 36.8248 446.285 36.5266C446.694 36.4535 448.006 38.8286 448.116 40.1438C448.583 45.7317 449.634 51.4708 448.851 56.9216C447.182 68.5263 448.439 80.478 444.323 91.8168C442.508 96.8165 442.314 102.401 440.531 107.416C438.769 112.37 435.918 116.935 433.57 121.683C431.967 124.923 430.585 128.286 428.794 131.415C425.17 137.746 421.863 144.359 417.461 150.118C411.045 158.511 404.275 166.768 396.704 174.099C391.388 179.247 384.454 182.712 378.298 187.008C366.701 195.098 353.063 197.594 339.828 201.242C335.974 202.304 332.296 204.034 328.419 204.975C324.313 205.972 320.087 206.578 315.878 207.025C309.151 207.74 302.376 208.013 295.659 208.801C291.226 209.321 286.873 210.488 282.461 211.23C278.525 211.892 274.53 212.22 270.609 212.955C261.439 214.675 252.333 216.764 243.135 218.309C230.655 220.406 220.372 227.217 210.369 234.063C203.416 238.822 198.16 245.985 191.551 251.341C184.728 256.87 180.261 264.186 174.795 270.752C172.565 273.43 169.862 272.66 167.766 269.614C162.617 262.131 161.32 253.288 158.577 244.949C157.937 243.001 156.933 241.173 156.096 238.871ZM193.759 190.746C194.596 193.606 195.577 196.433 196.242 199.332C197.998 206.984 199.46 214.706 201.349 222.324C202.524 227.06 205.324 227.75 209.175 224.727C211.054 223.253 212.976 221.828 214.937 220.467C224.493 213.832 235.809 211.525 246.585 208.061C253.314 205.898 253.275 206.649 251.458 198.995C247.955 184.242 244.83 169.398 241.413 154.623C240.869 152.269 240.189 148.841 238.57 148.1C236.162 146.998 232.846 147.669 229.944 147.919C226.919 148.179 223.929 149.232 220.92 149.246C209.377 149.298 198.574 152.475 187.886 156.391C185.385 157.307 184.857 159.088 185.436 161.16C188.12 170.768 190.969 180.33 193.759 190.746ZM213.009 28.3754C208.851 24.3126 203.292 24.3046 198.168 23.9309C192.476 23.5158 186.677 24.132 180.957 24.6609C174.31 25.2756 167.655 26.0459 161.099 27.2667C159.171 27.6258 155.867 28.4134 157.672 32.3445C158.522 34.1981 158.594 36.5356 158.562 38.6468C158.395 49.5523 163.424 59.3604 165.041 69.8899C165.59 73.4645 167.329 76.8779 167.711 80.4518C168.369 86.6241 169.015 87.2361 174.839 84.9785C175.202 84.8379 175.654 84.9476 176.048 84.8635C182.326 83.5245 188.544 81.713 194.89 80.9355C203.663 79.8604 212.435 77.4887 221.408 79.7928C223.265 80.2699 225.388 80.2617 224.75 77.074C223.998 73.3196 223.631 69.4789 222.727 65.7659C220.726 57.5522 218.515 49.3895 216.348 41.2172C215.283 37.2027 214.125 33.2131 213.009 28.3754ZM282.477 102.028C280.165 98.3527 278.871 94.1298 273.406 93.0982C264.343 91.3874 255.443 88.7997 246.486 86.5336C242.46 85.5152 238.466 84.3762 234.454 83.3015C231.667 82.5545 228.624 84.155 228.958 86.3507C229.53 90.109 230.297 93.8452 231.156 97.5506C232.567 103.638 234.103 109.696 235.611 115.761C237.148 121.947 238.724 128.123 240.261 134.309C240.701 136.084 241.337 137.865 241.414 139.664C241.636 144.815 241.889 144.848 247.247 145.194C256.804 145.81 266.343 146.744 275.877 147.673C279.704 148.046 283.496 148.769 287.306 149.313C290.269 149.736 292.204 149.053 291.717 145.432C291.515 143.927 291.996 142.293 291.631 140.853C289.653 133.054 287.398 125.324 285.46 117.516C284.261 112.683 283.458 107.752 282.477 102.028ZM330.602 196.186C335.371 195.602 340.187 195.265 344.895 194.362C349.291 193.52 350.41 190.77 349.066 186.169C346.343 176.85 343.921 167.437 340.919 158.211C340.218 156.057 337.776 153.004 335.992 152.903C323.141 152.178 310.251 152.147 297.377 151.794C294.773 151.722 293.729 152.818 294.221 155.222C295.425 161.109 296.612 167.007 298.086 172.83C299.994 180.366 302.008 187.885 304.326 195.302C305.162 197.975 306.584 200.923 310.63 198.774C311.608 198.256 313.111 198.826 314.345 198.675C319.63 198.03 324.905 197.302 330.602 196.186ZM300.472 98.2618C307.855 99.9357 315.24 101.597 322.619 103.287C328.529 104.641 329.514 103.676 327.987 98.1427C325.881 90.5147 323.909 82.8494 321.769 75.2311C320.738 71.5571 319.405 68.293 315.132 66.783C302.001 62.1442 290.181 54.8886 278.277 47.8049C277.416 47.2925 274.272 48.6188 274.297 48.918C274.608 52.7315 275.139 56.549 275.937 60.2966C278.032 70.1316 280.21 79.9506 282.537 89.7328C283.037 91.8326 283.884 95.057 285.296 95.5107C289.895 96.989 294.829 97.4248 300.472 98.2618ZM335.206 130.485C336.879 136.622 338.534 142.764 340.232 148.893C341.161 152.246 343.947 151.88 346.464 151.787C347.611 151.745 348.755 151.309 349.88 150.984C356.602 149.044 363.436 147.407 369.992 145.013C374.062 143.527 374.234 140.939 372.805 137.009C370.069 129.486 367.886 121.764 365.24 114.206C364.86 113.122 363.26 111.925 362.087 111.761C358.715 111.287 355.243 111.544 351.865 111.097C346.1 110.334 340.372 109.28 334.638 108.292C332.163 107.866 331.481 108.93 331.847 111.21C332.855 117.491 333.811 123.78 335.206 130.485ZM392.119 134.67C388.133 136.483 383.979 138.008 380.218 140.206C377.475 141.808 375.854 144.084 376.9 148.097C378.822 155.462 379.727 163.087 381.327 170.546C381.688 172.227 382.904 174.011 384.263 175.039C384.754 175.41 386.902 173.818 388.142 172.913C389.881 171.645 391.579 170.286 393.118 168.785C397.571 164.441 402.036 160.099 406.251 155.53C407.11 154.599 407.371 152.589 407.104 151.235C405.893 145.089 404.526 138.965 402.929 132.908C402.364 130.768 401.143 128.782 398.265 130.959C396.522 132.277 394.457 133.168 392.119 134.67ZM397.559 95.7509C395.049 97.2191 395.002 99.7513 395.542 101.963C397.294 109.136 399.244 116.269 401.416 123.325C401.962 125.102 403.039 127.086 405.764 124.524C411.375 119.247 417.483 114.502 423.165 109.297C424.026 108.508 424.318 106.16 423.817 104.982C421.603 99.7734 418.383 94.9194 416.735 89.565C415.379 85.1597 413.178 86.214 410.881 87.5604C406.592 90.0736 402.544 92.9977 397.559 95.7509ZM361.988 82.7779C359.128 84.1789 358.103 85.9691 359.249 89.3957C360.851 94.188 361.52 99.2843 362.885 104.167C363.65 106.905 365.445 109.253 368.74 108.244C374.392 106.513 380.023 104.632 385.485 102.381C390.993 100.112 392.238 96.8213 390.456 91.2706C390.1 90.1602 389.805 89.0167 389.623 87.8661C388.913 83.3952 387.548 82.1705 382.979 82.3879C380.446 82.5084 377.923 83.1785 375.403 83.1383C371.068 83.0693 366.739 82.6385 361.988 82.7779ZM193.759 118.767C195.234 121.917 196.113 125.617 198.362 128.052C200.396 130.256 204.005 132.361 206.778 132.192C210.355 131.974 213.472 129.555 214.818 125.174C216.96 118.197 216.186 111.813 213.011 105.485C210.465 100.412 205.92 98.0372 200.749 99.0988C197.648 99.7355 193.773 105.767 193.76 109.992C193.752 112.638 193.759 115.284 193.759 118.767ZM379.565 121.278C380.549 121.983 381.576 122.636 382.506 123.406C383.713 124.406 384.844 125.5 386.007 126.553C386.145 124.849 386.306 123.146 386.408 121.439C386.44 120.91 386.162 120.329 386.296 119.847C386.499 119.114 386.937 118.447 387.275 117.752C387.866 118.182 388.753 118.491 388.989 119.066C389.623 120.613 389.78 122.37 390.499 123.864C391.264 125.451 392.459 126.831 393.466 128.301C393.854 126.653 394.826 124.883 394.514 123.381C393.755 119.733 392.606 116.124 391.182 112.678C390.597 111.263 388.777 109.265 387.735 109.386C386.166 109.568 383.763 111.188 383.512 112.532C382.692 116.929 380.698 116.12 377.884 114.683C376.985 114.224 375.315 114.162 374.615 114.709C373.737 115.393 372.853 117.05 373.089 118.012C374.103 122.14 375.414 126.209 376.873 130.206C377.286 131.336 378.571 132.147 379.456 133.104C379.957 131.58 380.954 130.018 380.844 128.54C380.672 126.229 379.75 123.975 379.565 121.278ZM310.097 135.507C310.391 136.359 310.477 137.399 311.032 138.019C311.797 138.875 312.917 139.414 313.885 140.088C314.296 139.006 314.765 137.94 315.093 136.832C315.244 136.32 315.231 135.698 315.101 135.173C313.453 128.48 311.811 121.785 310.038 115.124C309.849 114.414 308.845 113.921 308.218 113.327C307.729 113.894 307.03 114.385 306.794 115.043C306.357 116.264 305.727 117.687 305.991 118.84C307.206 124.151 308.702 129.399 310.097 135.507Z" fill="#2E2525"/>
<path d="M216.148 477.615C216.636 478.685 216.909 479.548 217.195 480.406C218.291 483.689 216.333 487.036 212.75 487.405C205.885 488.114 198.998 488.708 192.105 488.993C190.852 489.045 188.729 487.65 188.359 486.491C184.422 474.157 180.768 461.732 177.016 449.339C174.804 442.03 172.496 434.748 170.336 427.424C165.277 410.269 160.266 393.101 155.263 375.93C150.222 358.63 145.224 341.319 140.19 324.017C136.859 312.569 133.539 301.117 130.14 289.688C125.156 272.93 120.099 256.194 115.087 239.444C110.334 223.56 105.678 207.647 100.835 191.792C95.3549 173.85 89.5951 155.993 84.1946 138.027C81.6503 129.564 79.8674 120.872 77.3648 112.394C74.7314 103.474 71.5002 94.7309 68.8008 85.8286C64.852 72.8055 61.0809 59.7272 57.3858 46.6297C56.617 43.9046 58.6229 42.2741 60.8841 41.3935C63.5302 40.3631 66.264 39.4367 69.0439 38.906C71.6758 38.4038 74.1148 38.775 75.2054 42.0133C77.5109 48.859 80.1675 55.5877 82.4116 62.4522C86.9919 76.4625 91.4545 90.5123 95.8466 104.583C98.2019 112.128 100.132 119.809 102.583 127.321C104.741 133.935 107.564 140.333 109.724 146.947C113.339 158.016 116.568 169.21 120.129 180.297C124.871 195.06 129.756 209.776 134.618 224.5C138.629 236.643 142.802 248.733 146.699 260.911C149.187 268.686 151.191 276.615 153.61 284.413C157.442 296.762 161.34 309.092 165.393 321.37C170.413 336.574 175.738 351.679 180.703 366.901C183.795 376.38 186.321 386.042 189.358 395.539C193.253 407.718 197.481 419.791 201.429 431.953C206.338 447.081 211.108 462.253 216.148 477.615Z" fill="#2E2525"/>
<path d="M66.3314 34.4433C56.4571 38.2646 46.9815 35.2338 41.5104 26.7801C38.2193 21.695 40.2046 11.4909 44.3985 5.98706C52.9468 -5.23132 71.8705 0.783067 75.3467 11.9612C77.1009 17.6019 73.9592 28.8632 69.0274 32.156C68.1342 32.7524 67.3663 33.5366 66.3314 34.4433Z" fill="#2E2525"/>
<path d="M157.769 130.903C157.945 136.627 156.367 140.918 151.387 143.674C149.583 144.672 148.673 146.298 149.99 148.819C151.279 151.288 151.789 154.205 152.363 156.982C152.519 157.738 151.787 158.798 151.202 159.502C151.054 159.681 149.52 159.218 149.282 158.729C147.879 155.844 146.413 152.947 145.448 149.901C142.951 142.023 140.664 134.078 138.409 126.127C138.103 125.047 138.225 123.704 138.565 122.612C139.552 119.434 145.521 116.852 148.623 117.59C151.929 118.376 154.445 120.314 155.316 124.004C155.842 126.233 156.933 128.329 157.769 130.903ZM152.329 135.088C151.835 131.804 151.726 128.387 150.664 125.298C150.215 123.99 148.817 121.497 145.909 122.988C143.453 124.247 142.888 125.382 144.219 127.956C145.262 129.972 145.419 132.434 146.067 134.669C146.676 136.765 147.414 138.823 148.095 140.897C149.367 139.1 150.639 137.304 152.329 135.088Z" fill="#2E2525"/>
<path d="M257.368 102.447C263.463 104.676 269.404 106.946 270.115 114.063C270.616 119.07 273.023 124.159 270.328 129.247C268.016 133.612 258.794 136.918 255.21 133.803C252.819 131.724 251.685 127.816 250.769 124.511C249.132 118.599 248.172 112.503 246.756 106.525C246.017 103.402 247.089 101.701 250.198 101.669C252.445 101.645 254.699 102.168 257.368 102.447ZM257.787 107.468C254.035 105.971 251.025 106.579 251.575 108.671C253.153 114.679 254.839 120.679 256.936 126.519C257.472 128.012 260.317 130.174 261.015 129.829C263.152 128.773 265.82 126.938 266.382 124.886C268.291 117.919 264.991 111.267 257.787 107.468Z" fill="#2E2525"/>
<path d="M356.13 134.251C355.293 130.147 354.222 126.492 353.741 122.76C353.563 121.382 354.773 119.824 355.35 118.349C356.168 119.445 357.379 120.426 357.736 121.656C359.289 127.011 360.197 132.586 362.131 137.787C363.377 141.138 361.831 140.926 359.704 140.944C357.849 140.959 355.916 140.605 354.155 141.01C348.689 142.269 345.309 140.669 343.798 135.725C342.704 132.144 341.366 128.602 340.703 124.941C340.436 123.469 341.684 121.722 342.242 120.101C343.244 121.278 344.633 122.302 345.172 123.662C346.451 126.891 347.02 130.418 348.442 133.569C350.4 137.91 352.546 138.073 356.13 134.251Z" fill="#2E2525"/>
<path d="M201.082 124.417C198.767 118.699 196.078 113.259 199.395 107.257C201.702 103.085 206.231 102.657 208.493 106.866C211.208 111.919 212.635 117.424 210.276 123.168C208.375 127.796 205.165 128.306 201.082 124.417Z" fill="#2E2525"/>
</g>
<defs>
<clipPath id="clip0_315_3">
<rect width="488.994" height="488.994" fill="white"/>
</clipPath>
</defs>
</svg>
