<svg width="1830" height="555" viewBox="0 0 1830 555" fill="none" xmlns="http://www.w3.org/2000/svg">
<path class="path" d="M1827 242.204C1687.81 239.688 1735.96 338.452 1630.29 374.745C1500.47 419.327 1427.64 253.206 1548 184.966C1664 141.305 1740.19 285.806 1658.1 361.459C1571.47 441.307 1437.79 305.658 1525.43 223.961C1608.96 146.106 1750.19 254.18 1676.57 337.304C1659.35 356.744 1632.78 371.118 1606.85 373.725C1527.57 381.689 1501.5 307.374 1448.71 265.94C1395.88 224.478 1323.08 209.536 1258.66 228.501C1232.24 236.276 1206.5 252.478 1190.6 275.16C1159.66 319.302 1194.43 368.085 1241.33 379.656C1324.36 400.15 1413.87 332.434 1396.58 243.528C1363.03 71.11 1085.5 143.072 1129 328.124C1165.37 482.828 1441.03 437.659 1404.7 277.092C1388.57 205.775 1312.45 150.57 1239.94 152.63C1171.76 154.568 1102.09 215.452 1119.31 288.345C1128.21 325.956 1154.08 356.237 1184.86 378.548C1273.76 442.975 1378 422.211 1416.38 313.426C1428.96 277.754 1425.86 239.574 1410.83 205.07C1352.39 70.924 1131.89 174.23 1143.73 313.041C1155.18 447.102 1340.15 495.54 1400.25 365.417C1414.56 334.426 1417.68 297.782 1408.19 264.96C1400.52 238.426 1385.38 213.91 1365.45 194.754C1207.47 42.864 1094.5 256.993 997.1 350.158C970.519 375.59 938.49 396.779 904.394 410.755C818.081 446.13 671.722 418.921 645.51 315.77C597.209 125.692 959.584 5.903 985.503 234.38C993.572 305.496 969.566 386.965 906.827 426.858C839.87 469.44 712.148 453.445 682.086 369.456C672.795 343.505 676.354 315.027 681.417 288.562C699.259 195.278 771.46 98.22 875.156 102.966C915.843 104.828 946.824 126.209 968.748 159.57C984.861 184.089 1000.79 212.945 1004.41 242.51C1007.89 270.857 1003.16 299.93 992.032 326.131C938.119 453.033 782.125 444.4 700.482 351.833C665.932 312.663 630.83 242.592 658.71 191.286C735.728 49.552 1064.48 223.341 968.573 368.659C948.858 398.536 919.046 418.861 884.76 428.729C856.766 436.788 826.576 435.633 798.258 429.965C759.592 422.218 706.281 410.262 684.789 372.881C676.287 358.095 676.571 341.512 680.342 325.28C700.347 239.088 834.315 195.711 909.645 184.966C950.102 179.195 1006.29 178.278 1009.75 231.687C1017.06 344.18 855.753 412.396 764.479 415.828C721.278 417.449 659.027 408.06 643.682 360.554C613.756 267.899 747.022 84.951 846.94 92.48C909.314 97.18 957.678 167.692 976.649 222.044C1013.01 326.206 972.121 432.924 850.853 437.794C821.365 438.976 790.215 434.944 763.519 421.812C695.941 388.579 658.275 298.782 660.662 225.816C661.901 187.913 679.7 151.413 707.687 126.171C816.377 28.151 1002.42 114.965 977.284 261.961C959.543 365.735 827.11 427.101 745.386 351.313C728.821 335.953 714.952 314.635 713.209 291.561C704.605 177.94 895.898 66.898 951.007 186.476C978.643 246.435 937.247 305.827 874.933 316.087C843.026 321.342 810.775 316.168 778.881 313.561C752.07 311.372 699.644 315.918 714.351 357.284C722.353 379.798 743.676 396.489 765.479 404.615C887.937 450.236 940.93 239.938 818.479 211.577C798.062 206.849 776.286 209.201 757.997 219.6C737.992 230.975 722.434 251.746 718.602 274.566C698.725 392.895 903.704 445.947 941.207 329.131C980.799 205.812 804.246 114.663 716.358 198.687C699.137 215.151 685.918 236.27 681.802 259.95C656.713 404.331 863.741 483.639 941.295 359.547C978.852 299.437 968.965 207.58 914.869 160.955C894.52 143.412 867.844 130.565 840.877 128.023C832.402 127.225 823.846 127.134 815.35 127.566C811.484 127.764 807.618 128.188 803.773 128.623C801.853 128.841 796.142 129.801 798.015 129.327C889.532 106.165 965.518 160.273 968.735 254.911C969.613 280.719 966.843 305.631 953.778 328.32C938.666 354.576 911.896 374.381 884.578 386.35C777.347 433.35 688.263 353.144 666.469 251.217C659.04 216.478 658.495 179.993 677.801 148.657C768.378 1.64999 1049.82 196.069 976.845 347.868C929.941 445.427 803.685 445.049 724.016 392.004C616.668 320.525 565.299 189.871 455.193 123.785C336.307 52.429 188.709 67.955 139.419 212.153C59.062 447.237 395.631 570.464 503.402 376.569C558.376 277.666 496.47 125.235 404.203 70.774C327.326 25.398 211.899 54.55 172.533 136.678C94.615 299.234 245.945 632.088 437.646 448.406C459.286 427.669 479.29 403.73 493.77 377.407C515.759 337.432 528.011 291.446 533.443 246.288C554.888 68.018 384.7 54.704 249.98 83.399C183.297 97.602 117.915 115.8 97.603 188.812C87.266 225.971 92.555 267.25 105.315 303.105C147.205 420.813 271.672 492.555 395.013 482.943C476.245 476.607 564.083 384.513 551.214 300.403C531.936 174.396 350.883 13.556 220.202 70.924C123.198 113.51 29.741 306.685 105.949 401.663C151.167 458.011 236.093 450.601 296.546 428.115C408.325 386.539 533.663 273.802 503.464 141.502C497.374 114.825 487.79 89.537 469.335 68.851C419.779 13.303 335.997 24.893 276.372 56.279C232.57 79.339 195.948 111.073 170.923 154.253C127.598 229.012 106.155 424.649 195.295 477.323C280.788 527.842 436.148 454.256 471.495 366.626C527.289 228.301 410.861 54.211 267.567 34.755C174.993 22.185 126.932 109.368 120.377 191.407C109.602 326.273 165.7 438.726 299.072 479.741C339.17 492.075 384.086 495.412 423.028 477.553C449.136 465.576 472.693 445.319 489.708 422.333C666.044 184.06 240.055 49.37 128.474 169.304C106.391 193.041 95.649 225.397 94.456 257.361C87.26 450.088 383.245 581.691 472.536 372.023C567.517 149.003 224.872 -12.841 125.068 210.183C112.813 237.567 106.149 267.696 105.131 297.667C97.943 509.117 438.137 514.373 492.644 296.546C501.823 259.867 503.738 220.647 486.365 185.931C467.44 148.117 431.459 121.215 391.354 109.227C214.096 56.247 31.572 296.91 195.487 415.436C221.369 434.153 252.215 447.372 283.338 454.289C395.243 479.187 501.132 380.021 513.678 271.35C519.477 221.128 506.465 171.942 486.509 126.084C463.12 72.331 426.125 6.39801 360.033 3.16801C182.325 -5.51799 101.022 324.477 153.859 457.714C184.241 534.326 294.637 583.535 365.439 528.605C402.996 499.472 426.81 449.764 437.07 404.264C470.038 258.036 410.046 137.677 270.028 78.718C192.284 45.982 59.336 22.198 57.55 147.625C55.476 293.33 185.034 417.861 314.702 460.294C398.099 487.577 489.936 485.733 537.674 401.325C586.683 314.675 541.22 198.063 460.643 147.96C418.549 121.786 363.855 197.516 314.702 198.687C246.755 200.306 163.286 148.157 154.139 225.679C139.417 350.449 315.695 438.118 420.709 410.228C496.749 390.031 535.504 306.806 552.342 237.052C561.303 199.922 569.116 154.57 551.72 118.545C523.183 59.443 444.143 65.336 391.687 82.117C288.208 115.22 118.899 254.542 196.697 377.711C250.896 463.523 401.988 490.778 460.416 394.854C472.013 375.813 477.842 350.199 472.996 328.124C458.871 263.778 384.948 240.997 327.034 239.492C259.418 237.736 199.464 268.527 135.027 283.563C89.506 294.188 48.559 291.608 3 285.981" stroke="url(#paint0_linear_1_3)" stroke-width="5" stroke-miterlimit="1.5" stroke-linecap="round" stroke-linejoin="round" stroke-dasharray="10 10"/>
<defs>
<linearGradient id="paint0_linear_1_3" x1="3" y1="277.243" x2="1827.13" y2="277.243" gradientUnits="userSpaceOnUse">
<stop stop-color="#2E2525"/>
<stop offset="1" stop-color="#2E252534"/>
</linearGradient>
</defs>
<style>
    @media (prefers-reduced-motion: no-preference) {
      .path {
        stroke-dasharray: 10;
        stroke-dashoffset: 1500;
        animation-name: dash;
        animation-fill-mode: forwards;
        animation-timing-function: linear;
        animation-duration: 20s;
        animation-iteration-count: infinite;
        animation-direction: reverse;
      }

      @keyframes dash {
        to {
          stroke-dashoffset: 0;
        }
      }
    }
  </style>
</svg>
