<svg width="3654" height="2083" viewBox="0 0 3654 2083" fill="none" xmlns="http://www.w3.org/2000/svg">
<g id="script-p">
<path class="path" id="Vector" d="M301.413 1940.83C266.038 2158.49 216.626 2067.09 190.87 2013.47C125.822 1878.05 121.873 960.334 133.787 640.971C141.035 446.703 194.177 240.255 296.539 270.02C454.983 316.092 583.721 728.335 522.028 1055.89C482.943 1263.4 311.158 1437.65 216.626 1318.02C118.061 1193.29 141.771 730.02 189.677 552.991C217.348 450.741 257.842 375.595 306.275 320.989C372.204 246.667 464.844 219.222 519.639 350.76C540.045 399.744 550.643 459.626 557.377 522.797C590.769 836.083 452.179 1103.04 328.582 1201.49C261.737 1254.74 167.832 1272.29 117.834 1138.86C33.5684 913.948 136.906 456.512 244.166 355.669C388.664 219.821 238.361 1053.08 259.678 1351.46C273.907 1550.63 344.554 2041.32 254.734 2056.33C118.352 2079.09 163.452 1184.2 117.133 905.472C103.024 820.567 97.1753 722.819 108.605 634.826C131.065 461.934 203.359 418.842 277.093 385.209C426.056 317.26 614.238 348.786 590.525 770.93C584.519 877.864 570.972 986.757 546.658 1081.42C530.647 1143.75 508.528 1200.44 484.6 1249.54C272.631 1684.5 105.301 896.306 191.457 511.374C234.985 316.895 362.616 247.863 447.621 355.313C549.643 484.277 618.094 845.231 557.308 1079.43C438.143 1538.58 65.9893 1246.78 154.842 690.098C209.344 348.637 372.547 311.872 504.002 480.843C625.749 637.335 682.55 946.721 801.247 1115.98C889.34 1241.59 1028.94 1242.49 1080.81 1011.47C1161.5 652.01 850.3 191.627 750.146 539.74C728.799 613.943 729.401 700.339 737.616 782.601C761.714 1023.96 860.217 1213.89 978.785 1102.59C1008.99 1074.25 1038.59 1027.35 1055.3 965.18C1069.75 911.453 1072.81 852.462 1071.84 791.349C1068.28 567.246 984.263 439.119 883.07 493.967C880.999 495.089 887.314 492.816 889.437 492.299C893.688 491.269 897.963 490.265 902.238 489.797C911.632 488.774 921.093 488.989 930.464 490.879C960.282 496.898 989.778 527.32 1012.28 568.861C1072.09 679.269 1083.03 896.785 1041.5 1039.13C955.745 1332.98 726.828 1145.18 754.57 803.281C759.121 747.207 773.738 697.197 792.78 658.21C889.96 459.242 1085.18 675.082 1041.4 967.101C999.933 1243.72 773.282 1118.09 795.261 837.892C799.498 783.854 816.701 734.668 838.821 707.732C859.044 683.108 883.122 677.538 905.698 688.734C1041.1 755.893 982.499 1253.88 847.094 1145.85C822.986 1126.6 799.409 1087.08 790.56 1033.77C774.299 935.812 832.267 925.048 861.913 930.231C897.179 936.405 932.84 948.657 968.12 936.213C1037.02 911.917 1082.8 771.278 1052.24 629.295C991.302 346.134 779.784 609.081 789.298 878.136C791.225 932.775 806.56 983.255 824.877 1019.63C915.241 1199.09 1061.68 1053.78 1081.29 808.043C1109.09 459.957 903.374 254.382 783.192 486.493C752.246 546.266 732.565 632.698 731.195 722.452C728.556 895.235 770.204 1107.87 844.927 1186.57C874.445 1217.67 908.889 1227.21 941.495 1224.41C1075.58 1212.88 1120.8 960.175 1080.59 713.52C1059.61 584.814 1006.14 417.843 937.168 406.713C826.686 388.884 679.33 822.103 712.42 1041.51C729.387 1154 798.22 1176.24 845.988 1172.4C946.912 1164.27 1125.27 1002.74 1117.19 736.354C1113.37 609.882 1051.24 612.053 1006.5 625.719C923.208 651.163 775.076 753.879 752.956 957.982C748.786 996.419 748.472 1035.69 757.873 1070.7C781.637 1159.22 840.585 1187.53 883.339 1205.87C914.651 1219.3 948.033 1222.03 978.986 1202.95C1016.9 1179.58 1049.86 1131.45 1071.66 1060.7C1177.71 716.59 814.198 305.059 729.037 640.685C698.209 762.177 737.022 928.104 775.225 1020.86C865.5 1240.06 1037.99 1260.5 1097.6 959.997C1109.9 897.953 1115.13 829.109 1111.29 761.983C1107.28 691.973 1089.67 623.643 1071.85 565.582C1047.61 486.583 1013.36 435.953 968.367 431.544C853.707 420.305 773.873 650.138 754.144 871.034C748.546 933.703 744.611 1001.14 754.884 1062.59C788.124 1261.48 929.351 1299.35 1003.39 1198.52C1072.76 1104.05 1099.3 911.134 1090.38 742.731C1061.72 201.698 661.033 485.358 714.441 935.462C743.424 1179.72 905.258 1244.15 1000.7 1160.39C1038.4 1127.29 1073.81 1077.12 1103.2 1016.89C1210.9 796.278 1335.82 289.222 1510.5 648.897C1532.54 694.258 1549.28 752.312 1557.76 815.145C1568.25 892.867 1564.8 979.639 1548.98 1053.03C1482.52 1361.16 1278 1246.46 1265.34 929C1252.24 600.296 1496.06 355.668 1560.68 673.325C1577.29 755.031 1580.72 845.44 1566.81 929.911C1524.38 1187.51 1409.11 1236.68 1310.81 1084.12C1276.78 1031.29 1248.18 959.583 1238.33 870.52C1219.29 697.91 1296.33 553.737 1371.72 549.148C1451.89 544.27 1536.06 674.995 1553.9 843.873C1594.07 1224.1 1289.26 1331.05 1249.05 964.716C1200.95 526.513 1507.82 356.108 1544.92 764.394C1564.04 974.923 1465.06 1135.27 1373.26 1086.74C1321.4 1059.34 1282.95 943.826 1317.16 839.298C1334.74 785.587 1391.54 740.539 1420.76 722.127C1491.99 677.218 1486.5 -85.1845 1544.92 12.9975C1603.29 111.113 1448.37 1121.45 1536.03 1102.59C1564.7 1096.42 1571.29 924.17 1590.33 878.136C1671.73 681.298 1548.98 -43.8603 1510.5 57.7811C1478.66 130.859 1515.6 1230.59 1611.39 1041.51C1702.16 862.364 1584.81 -22.2797 1527.44 9.11053C1480.07 118.384 1423.27 1228.3 1566.81 1122.73C1683.66 1036.79 1584.94 676.6 1738.85 682.558C1738.85 682.558 1748.57 694.126 1775.57 680.29M301.413 1940.83C301.413 1898.19 216.424 1332.12 235.238 1277.69C430.218 713.463 266.118 304.628 142.74 588.632C118.322 644.841 106.445 721.46 105.125 797.15C97.1686 1253.53 424.447 1565.16 523.179 1068.67C628.202 540.557 249.33 157.312 138.974 685.433C125.423 750.278 118.055 821.623 116.929 892.594C108.981 1393.31 485.143 1405.75 545.413 889.94C555.562 803.084 557.68 710.212 538.47 628.004C517.544 538.461 477.759 474.757 433.414 446.37C237.415 320.913 35.5927 890.8 216.838 1171.47C245.457 1215.79 279.564 1247.09 313.977 1263.47C437.714 1322.43 554.798 1087.61 568.671 830.276C575.083 711.351 560.695 594.879 538.629 486.287C512.767 359 471.861 202.871 398.781 195.223C202.284 174.654 112.386 956.079 170.809 1271.58C204.403 1453 223.125 2070.91 301.413 1940.83ZM301.413 1940.83C342.941 1871.85 262.572 1591.43 273.917 1483.68C310.371 1137.42 454.082 513.74 299.26 374.125C213.296 296.606 66.2923 240.285 64.3174 537.296C62.0242 882.325 205.28 1177.21 348.657 1277.69C440.872 1342.3 542.418 1337.93 595.204 1138.06C649.394 932.868 599.125 656.733 510.028 538.089C463.484 476.109 407.767 452.2 353.418 454.973C278.287 458.807 181.233 538.555 171.119 722.127C154.84 1017.58 349.755 1225.18 465.872 1159.14C549.952 1111.31 592.804 914.236 611.422 749.059C621.331 661.135 629.97 553.742 610.735 468.435C579.181 328.481 491.784 342.436 433.782 382.174C319.362 460.561 132.153 790.474 218.176 1082.14C278.105 1285.34 445.172 1349.88 509.777 1122.73C522.6 1077.64 529.046 1016.99 523.687 964.716C508.069 812.345 426.33 758.4 362.293 754.837C287.528 750.678 221.236 823.591 149.986 859.196C99.6521 884.356 54.3758 878.247 4 864.922M1935.5 1004.5C2015.77 1010.52 1951.22 664.932 2006.34 568.348M2006.34 568.348C2007.73 565.918 2009.19 563.646 2010.73 561.541C2009.16 562.169 2007.7 564.543 2006.34 568.348ZM2006.34 568.348C1994.44 601.66 1990.07 744.633 1980.75 785.924M2006.28 930.474C2021.98 912.104 2117.06 878.827 2126.69 825.14C2145.43 720.66 2125.35 605.09 2097.73 577.618C2051.31 531.434 2000.66 673.425 2003.62 868.03M2006.28 930.474C2005.61 920.615 2005.04 910.368 2004.56 899.728C2004.09 889.025 2003.78 878.452 2003.62 868.03M2006.28 930.474C2015.22 1062.89 2041.05 1125.48 2069.4 1131.53M2006.28 930.474C2002.68 904.762 1999.84 877.348 1997.91 848.96C1994.84 803.753 1994.3 755.492 1996.11 708.588M2006.28 930.474C2010.64 961.684 2016.13 990.384 2022.49 1015.27M2003.62 868.03C2002.13 852.513 2000.95 836.553 2000.09 820.237C1996.24 746.584 1999.27 683.201 2006.8 631.533M2003.62 868.03C2016.15 999.043 2050 1098.47 2084.98 1113.4M2069.4 1131.53C2080.6 1133.92 2092.2 1127.49 2103.3 1113.06M2069.4 1131.53C2039.16 1156.43 2009.3 1120.29 1995.76 990.774C1987.21 909.046 1985.75 818.632 1993.55 734.181C1994.36 725.408 1995.21 716.877 1996.11 708.588M2069.4 1131.53C2074.61 1127.24 2079.83 1121.14 2084.98 1113.4M2103.3 1113.06C2139.2 1066.38 2169.96 935.982 2165.59 749.564M2103.3 1113.06C2100.97 1114.23 2098.63 1114.95 2096.3 1115.21C2092.53 1115.63 2088.75 1115 2084.98 1113.4M2103.3 1113.06C2141.3 1093.98 2177.9 956.688 2168.98 794.028C2168.14 778.69 2167 763.866 2165.59 749.564M2165.59 749.564C2165.22 733.397 2164.57 716.809 2163.65 699.817C2158.62 607.705 2144.53 545.484 2126.57 509.988M2165.59 749.564C2162.09 713.883 2156.94 681.448 2150.73 652.382M2126.57 509.988C2086.91 431.639 2028.37 483.499 2006.8 631.533M2126.57 509.988C2137.33 546.502 2145.91 594.626 2150.73 652.382M2126.57 509.988C2090.34 387.14 2029.35 395.713 2003.6 611.091C1999.93 641.791 1997.41 674.838 1996.11 708.588M2006.8 631.533C2035.82 466.423 2087.04 450.745 2131.11 580.328C2138.27 601.387 2144.96 625.437 2150.73 652.382M2006.8 631.533C2002.78 654.358 1999.19 680.04 1996.11 708.588M2084.98 1113.4C2123.29 1055.79 2157.73 907.164 2154.79 735.511C2154.28 705.991 2152.88 678.223 2150.73 652.382M2286.21 1108.61C2377.46 1115.71 2304.15 707.492 2366.82 593.396M2366.82 593.396C2368.4 590.525 2370.06 587.841 2371.82 585.354C2370.03 586.097 2368.37 588.901 2366.82 593.396ZM2366.82 593.396C2353.29 632.747 2348.29 801.635 2337.69 850.411M2698.45 315.775C2649.47 315.775 2606.96 314.164 2594.62 369.248C2581.08 429.66 2583.71 421.071 2535.53 450.191C2463.02 476.153 2360.34 717.519 2363.67 947.397M2698.45 315.775C2711.69 295.746 2725.64 286.767 2739.23 289.977M2698.45 315.775C2655.64 380.56 2620.21 560.957 2628.06 818.451M2698.45 315.775C2701.26 314.14 2704.08 313.118 2706.9 312.741C2711.45 312.131 2716.04 312.966 2720.62 315.156M2698.45 315.775C2652.72 342.444 2610.31 532.419 2623.35 757.055C2624.58 778.236 2626.17 798.705 2628.06 818.451M2363.67 947.397C2363.85 959.708 2364.2 972.197 2364.74 984.84C2365.28 997.408 2365.92 1009.51 2366.68 1021.16M2363.67 947.397C2361.99 929.067 2360.64 910.214 2359.67 890.941C2355.31 803.939 2358.76 729.067 2367.33 668.033M2363.67 947.397C2377.9 1102.15 2416.35 1219.6 2456.11 1237.23M2366.68 1021.16C2376.82 1177.57 2406.17 1251.5 2438.4 1258.65M2366.68 1021.16C2362.59 990.786 2359.38 958.403 2357.19 924.871C2353.7 871.47 2353.09 814.461 2355.16 759.056M2366.68 1021.16C2371.64 1058.02 2377.87 1091.93 2385.1 1121.32M2438.4 1258.65C2451.13 1261.47 2464.31 1253.87 2476.93 1236.83M2438.4 1258.65C2404.02 1288.06 2370.08 1245.38 2354.71 1092.39C2345.01 995.848 2343.37 889.047 2352.25 789.288C2353.17 778.925 2354.14 768.848 2355.16 759.056M2438.4 1258.65C2444.32 1253.58 2450.26 1246.38 2456.11 1237.23M2476.93 1236.83C2517.75 1181.68 2552.74 1027.65 2547.81 807.44M2476.93 1236.83C2474.28 1238.21 2471.63 1239.06 2468.98 1239.37C2464.69 1239.87 2460.4 1239.13 2456.11 1237.23M2476.93 1236.83C2520.13 1214.29 2561.76 1052.1 2551.65 859.962C2550.7 841.845 2549.4 824.334 2547.81 807.44M2547.81 807.44C2547.38 788.342 2546.66 768.747 2545.61 748.676C2539.91 639.868 2523.91 566.371 2503.49 524.444M2547.81 807.44C2543.83 765.291 2537.99 726.978 2530.93 692.645M2503.49 524.444C2458.43 431.898 2391.87 493.165 2367.33 668.033M2503.49 524.444C2515.72 567.575 2525.46 624.421 2530.93 692.645M2503.49 524.444C2462.34 379.333 2393.01 389.467 2363.7 643.887C2359.52 680.152 2356.65 719.189 2355.16 759.056M2367.33 668.033C2400.35 472.992 2458.57 454.467 2508.64 607.532C2516.78 632.407 2524.38 660.816 2530.93 692.645M2367.33 668.033C2362.76 694.996 2358.68 725.333 2355.16 759.056M2456.11 1237.23C2499.67 1169.18 2538.84 993.607 2535.53 790.84C2534.96 755.97 2533.37 723.169 2530.93 692.645M2905.62 584.272C2808.37 576.625 2888.73 933.58 2823.34 1067.47M2905.62 584.272C2937.35 636.653 2966.55 696.316 2987.06 754.004C2989.19 759.997 2991.22 765.839 2993.13 771.529M2905.62 584.272C2855.34 501.264 2822.05 483.691 2807.47 506.686M2823.34 1067.47C2821.69 1070.84 2819.96 1073.99 2818.12 1076.91C2820.02 1076.03 2821.75 1072.73 2823.34 1067.47ZM2823.34 1067.47C2837.29 1021.35 2840.61 823.801 2851.31 766.68M2740.16 551.587C2721.4 577.096 2685.02 639.475 2674.11 713.721C2652.88 858.213 2678.78 1017.7 2712.59 1055.42C2769.41 1118.84 2828.77 922.259 2822.5 653.443M2822.5 653.443C2822.16 639.047 2821.64 624.444 2820.92 609.662C2820.2 594.967 2819.36 580.816 2818.42 567.201M2822.5 653.443C2824.51 674.868 2826.17 696.907 2827.42 719.439C2833.11 821.156 2830.32 908.743 2821.92 980.184M2822.5 653.443C2805.51 472.558 2763.17 335.484 2720.62 315.156M2818.42 567.201C2805.77 384.354 2773.63 298.103 2739.23 289.977M2818.42 567.201C2823.13 602.692 2826.94 640.541 2829.67 679.741C2834.02 742.168 2835.34 808.835 2833.79 873.645M2818.42 567.201C2812.7 524.123 2805.66 484.52 2797.62 450.191M2739.23 289.977C2775.49 255.331 2812.14 305.004 2830.32 483.811C2841.8 596.645 2844.81 721.537 2836.54 838.269C2835.68 850.395 2834.76 862.187 2833.79 873.645M2739.23 289.977C2732.98 295.944 2726.75 304.414 2720.62 315.156M2628.06 818.451C2628.75 840.782 2629.75 863.693 2631.11 887.159C2638.46 1014.37 2656.38 1100.21 2678.62 1149.09M2628.06 818.451C2632.8 867.715 2639.48 912.479 2647.41 952.581M2678.62 1149.09C2727.7 1257 2797.85 1184.87 2821.92 980.184M2678.62 1149.09C2665.08 1098.74 2654.03 1032.33 2647.41 952.581M2678.62 1149.09C2724.16 1318.5 2797.87 1306.15 2826.07 1008.4C2830.09 965.954 2832.68 920.281 2833.79 873.645M2821.92 980.184C2789.06 1208.52 2727.28 1230.6 2672.14 1051.96C2663.18 1022.93 2654.76 989.757 2647.41 952.581M2821.92 980.184C2826.46 948.617 2830.45 913.11 2833.79 873.645M2720.62 315.156C2675.04 395.051 2635.41 600.666 2641.34 837.776C2642.36 878.552 2644.44 916.901 2647.41 952.581M3275.07 1157.29C3366.51 1161.19 3129.17 744.305 3189.48 657.381M3275.07 1157.29C3242.67 1152.41 3211.75 1097.19 3198.32 979.555M3275.07 1157.29C3287.87 1159.21 3300.89 1153.28 3313.16 1140.24M3275.07 1157.29C3241.29 1179.98 3206.44 1148.37 3187.84 1033.39C3176.11 960.834 3172.23 880.423 3179.01 805.149C3179.72 797.329 3180.48 789.724 3181.29 782.334M3275.07 1157.29C3280.89 1153.38 3286.67 1147.86 3292.34 1140.87M3189.48 657.381C3190.99 655.194 3192.6 653.146 3194.3 651.246M3189.48 657.381C3176.76 687.233 3175.31 814.51 3165.73 851.414M3189.48 657.381C3190.93 653.972 3192.53 651.833 3194.3 651.246M3194.3 651.246C3175.78 658.743 3108.73 673.015 3080.14 704.935C3024.5 767.054 2991.7 847.03 2999.99 872.347C3013.93 914.903 3107.29 837.434 3184.26 711.28M3650.5 1067.47C3499 1200 3380 1023.39 3332.67 883.667C3318 792 3325.72 687.919 3293.63 663.977C3239.71 623.728 3185.6 750.968 3193.76 924.048M3193.76 924.048C3194.2 933.318 3194.81 942.718 3195.62 952.232C3196.42 961.689 3197.32 970.795 3198.32 979.555M3193.76 924.048C3191.69 910.27 3189.95 896.092 3188.58 881.592C3182.38 816.135 3184.26 759.69 3191.55 713.586M3193.76 924.048C3211.25 1040.38 3252.19 1128.22 3292.34 1140.87M3198.32 979.555C3193.6 956.744 3189.7 932.406 3186.8 907.185C3182.19 867.021 3180.39 824.095 3181.29 782.334M3198.32 979.555C3204.06 1007.24 3211.01 1032.68 3218.85 1054.7M3313.16 1140.24C3352.85 1098.06 3384.61 981.498 3375.06 815.727M3313.16 1140.24C3310.54 1141.32 3307.9 1142.01 3305.26 1142.28C3300.98 1142.72 3296.67 1142.23 3292.34 1140.87M3313.16 1140.24C3355.91 1122.58 3394.15 999.775 3380 855.223C3378.67 841.593 3377.01 828.425 3375.06 815.727M3375.06 815.727C3374.23 801.35 3373.09 786.603 3371.61 771.503C3363.63 689.645 3346.08 634.543 3324.77 603.288M3375.06 815.727C3370.19 784.045 3363.54 755.282 3355.75 729.535M3324.77 603.288C3277.74 534.3 3212.44 581.496 3191.55 713.586M3324.77 603.288C3337.91 635.579 3348.85 678.239 3355.75 729.535M3324.77 603.288C3280.55 494.648 3211.4 503.378 3187.41 695.458C3184 722.837 3181.94 752.284 3181.29 782.334M3191.55 713.586C3220.49 566.169 3278.35 551.296 3331.67 665.785C3340.33 684.391 3348.53 705.667 3355.75 729.535M3191.55 713.586C3187.55 733.966 3184.1 756.879 3181.29 782.334M3292.34 1140.87C3334.49 1088.93 3369.99 956.08 3362.42 803.419C3361.11 777.165 3358.84 752.486 3355.75 729.535M2426.68 1036.56C2363.35 1002.66 2137.18 1043.55 2140.98 993.795C2153.04 1003.48 2223.58 1105.98 2258.74 1111.8C2327.19 1123.14 2402.83 1110.4 2420.77 1093.21C2450.93 1064.33 2357.87 1033.31 2230.45 1035.65M2426.68 1036.56C2428.27 1037.42 2429.76 1038.32 2431.15 1039.27C2430.73 1038.29 2429.17 1037.4 2426.68 1036.56ZM2426.68 1036.56C2404.85 1029.27 2311.23 1026.93 2284.17 1021.27M2230.45 1035.65C2223.63 1035.78 2216.71 1036 2209.7 1036.32C2202.73 1036.64 2196.03 1037.02 2189.57 1037.46M2230.45 1035.65C2240.61 1034.69 2251.06 1033.92 2261.74 1033.35C2309.96 1030.77 2351.47 1032.48 2385.31 1037.01M2230.45 1035.65C2144.69 1043.76 2079.65 1064.99 2069.93 1086.71M2189.57 1037.46C2102.89 1043.34 2061.95 1059.51 2058.03 1077.1M2189.57 1037.46C2206.4 1035.16 2224.35 1033.34 2242.93 1032.07C2272.52 1030.04 2304.12 1029.58 2334.84 1030.58M2189.57 1037.46C2169.14 1040.25 2150.36 1043.72 2134.08 1047.73M2058.03 1077.1C2056.49 1084.05 2060.72 1091.21 2070.18 1098.05M2058.03 1077.1C2041.68 1058.42 2065.29 1039.83 2150.07 1031.1C2203.57 1025.59 2262.77 1024.45 2318.08 1029.06C2323.82 1029.54 2329.41 1030.05 2334.84 1030.58M2058.03 1077.1C2060.85 1080.32 2064.85 1083.53 2069.93 1086.71M2070.18 1098.05C2100.81 1120.18 2186.24 1138.9 2308.3 1135.71M2070.18 1098.05C2069.41 1096.61 2068.94 1095.17 2068.76 1093.72C2068.48 1091.39 2068.89 1089.04 2069.93 1086.71M2070.18 1098.05C2082.74 1121.55 2172.7 1143.87 2279.19 1137.93C2289.23 1137.37 2298.93 1136.62 2308.3 1135.71M2308.3 1135.71C2318.88 1135.44 2329.74 1135 2340.87 1134.38C2401.17 1131.03 2441.89 1122.13 2465.1 1110.91M2308.3 1135.71C2331.65 1133.45 2352.88 1130.18 2371.9 1126.25M2465.1 1110.91C2516.33 1086.13 2482.27 1049.99 2385.31 1037.01M2465.1 1110.91C2441.21 1117.67 2409.71 1123.11 2371.9 1126.25M2465.1 1110.91C2545.47 1088.14 2539.76 1050.38 2398.69 1034.98C2378.58 1032.78 2356.94 1031.31 2334.84 1030.58M2385.31 1037.01C2493.47 1054.57 2503.82 1086.26 2419.05 1113.91C2405.27 1118.4 2389.54 1122.61 2371.9 1126.25M2385.31 1037.01C2370.36 1034.58 2353.54 1032.42 2334.84 1030.58M2069.93 1086.71C2107.71 1110.29 2205.09 1131.25 2317.48 1128.98C2336.81 1128.59 2354.99 1127.65 2371.9 1126.25M3287.68 642.189C3233.58 616.156 3138.66 856.548 3060.6 903.54M3060.6 903.54C3058.64 904.722 3056.68 905.782 3054.74 906.712C3056.1 906.742 3058.1 905.615 3060.6 903.54ZM3060.6 903.54C3082.52 885.371 3143.68 794.496 3167.01 770.473M3184.26 711.28C3188.38 704.524 3192.45 697.629 3196.47 690.604C3200.46 683.621 3204.22 676.864 3207.75 670.33M3184.26 711.28C3179 721.684 3173.35 732.291 3167.32 743.035C3140.12 791.534 3112.24 831.522 3085.95 862.721M3184.26 711.28C3228.65 623.441 3245.19 550.062 3226.62 530.794M3207.75 670.33C3255.24 582.582 3262.47 535.141 3244.96 523.416M3207.75 670.33C3199.84 687.883 3190.7 706.322 3180.53 725.138C3164.33 755.103 3145.11 786.335 3124.78 816.043M3207.75 670.33C3217.35 649.024 3225.14 629.024 3230.78 611.24M3244.96 523.416C3238.04 518.785 3227.26 519.726 3213.58 525.957M3244.96 523.416C3276.37 515.728 3282.73 547.244 3239.66 634.397C3212.48 689.393 3176.77 748.026 3136.98 800.267C3132.84 805.693 3128.78 810.952 3124.78 816.043M3244.96 523.416C3239.55 524.74 3233.39 527.227 3226.62 530.794M3213.58 525.957C3169.33 546.11 3094.69 621.605 3022.04 742.872M3213.58 525.957C3215.7 525.847 3217.64 526.024 3219.38 526.501C3222.21 527.271 3224.62 528.719 3226.62 530.794M3213.58 525.957C3179.06 527.753 3097.51 606.078 3037.71 713.3C3032.07 723.411 3026.86 733.273 3022.04 742.872M3022.04 742.872C3015.74 753.389 3009.45 764.251 3003.2 775.45C2969.32 836.161 2953.97 880.124 2952.21 907.944M3022.04 742.872C3010.01 766.821 3000.46 789.13 2993.03 809.567M2952.21 907.944C2948.31 969.351 3010.62 952.108 3085.95 862.721M2952.21 907.944C2959.45 881.455 2972.96 848.093 2993.03 809.567M2952.21 907.944C2927.82 997.063 2974.26 1008.37 3079.89 876.767C3094.95 858.008 3110.15 837.42 3124.78 816.043M3085.95 862.721C2998.43 961.049 2955.98 957.01 2977.58 861.387C2981.09 845.848 2986.15 828.512 2993.03 809.567M3085.95 862.721C3098.05 849.127 3111.01 833.578 3124.78 816.043M3226.62 530.794C3176.23 557.32 3091.6 643.542 3023.94 754.907C3012.31 774.059 3002.01 792.33 2993.03 809.567M3226.62 530.794C3165.49 544 3039.85 790.87 3029.2 866.747M3029.2 866.747C3028.93 868.656 3028.56 870.477 3028.07 872.204C3029.04 871.449 3029.38 869.562 3029.2 866.747ZM3029.2 866.747C3027.63 842.1 2986.38 746.325 2980.41 716.94M2865.34 632.593C2859.47 648.143 2850.89 684.522 2860.48 722.197C2879.15 795.515 2929.92 867.874 2958.85 880.179C3007.48 900.868 3000.71 795.828 2938 667.376M2938 667.376C2934.64 660.497 2931.12 653.55 2927.44 646.552C2923.78 639.596 2920.17 632.922 2916.61 626.524M2938 667.376C2943.92 677.351 2949.76 687.684 2955.46 698.324C2981.22 746.354 2998.7 789.046 3009.21 824.932M2938 667.376C2887.99 583.158 2832.08 524.457 2801.61 522.051M2916.61 626.524C2868.83 540.608 2830.29 504.625 2807.47 506.686M2916.61 626.524C2927.27 642.809 2937.89 660.386 2948.14 678.803C2964.47 708.131 2979.88 740.029 2993.13 771.529M2916.61 626.524C2903.68 606.758 2890.7 588.896 2878.26 573.75M2807.47 506.686C2798.46 507.499 2791.9 514.248 2788.19 526.199M2807.47 506.686C2804.96 510.646 2803 515.811 2801.61 522.051M2788.19 526.199C2776.21 564.856 2794.06 657.943 2855.27 780.664M2788.19 526.199C2789.55 524.924 2791.05 523.943 2792.69 523.271C2795.34 522.186 2798.33 521.792 2801.61 522.051M2788.19 526.199C2766.07 546.995 2781.76 645.909 2838.94 751.896C2844.33 761.889 2849.78 771.478 2855.27 780.664M2855.27 780.664C2860.58 791.307 2866.21 802.172 2872.18 813.245C2904.54 873.27 2934.3 911.523 2958.6 931.218M2855.27 780.664C2868.96 803.581 2882.84 823.993 2896.47 841.941M2958.6 931.218C3012.25 974.692 3039.33 927.749 3009.21 824.932M2958.6 931.218C2939.29 909.304 2917.99 879.221 2896.47 841.941M2958.6 931.218C3023.55 1004.95 3065.91 986.191 3017.93 837.807C3011.09 816.657 3002.67 794.196 2993.13 771.529M3009.21 824.932C3039.14 940.674 3006.21 962.046 2933.37 885.534C2921.53 873.1 2909.11 858.58 2896.47 841.941M3009.21 824.932C3005.07 808.932 2999.74 791.128 2993.13 771.529M2801.61 522.051C2791.25 568.469 2812.06 674.437 2867.62 787.67C2877.17 807.143 2886.85 825.262 2896.47 841.941M1775.57 680.29C1781.29 677.359 1787.78 673.29 1795.12 667.729C1818.6 649.941 1840.48 645.491 1860.04 651.189M1775.57 680.29C1771.96 686.016 1768.42 692.423 1764.97 699.545C1754.22 721.714 1746.09 746.094 1740.34 771.61M1775.57 680.29C1802.08 638.244 1832.38 632.942 1860.04 651.189M1860.04 651.189C1958.41 679.839 1998.31 965.038 1889.84 1101.1C1814.88 1163.35 1754.12 1073.72 1735.39 952.899M1860.04 651.189C1929.2 696.808 1981.89 889.62 1917.77 1023.39M1735.39 952.899C1726.45 895.201 1727.08 830.391 1740.34 771.61M1735.39 952.899C1766.08 1074.39 1858.14 1147.77 1917.77 1023.39M1735.39 952.899C1721.45 897.718 1720.17 832.615 1740.34 771.61M1740.34 771.61C1741.96 766.703 1743.72 761.823 1745.62 756.976C1763.8 710.726 1792.53 676.349 1821.08 669.842C1908.38 649.964 1857.56 925.97 1917.77 1023.39M1776.2 405.336C1764.82 413.148 1751.07 426.938 1747.62 434.061C1730.7 457.159 1759.67 483.811 1860.04 483.811C1900.83 483.811 1896.22 428.602 1877.82 389.57C1874.58 382.696 1790.86 395.267 1776.2 405.336ZM1885.34 401.415C1903.74 440.447 1908.35 495.657 1867.56 495.657C1767.19 495.657 1738.22 469.005 1755.14 445.906C1758.59 438.784 1772.34 424.993 1783.72 417.181C1798.38 407.113 1882.1 394.542 1885.34 401.415Z" stroke="url(#paint0_linear_328_3)" stroke-width="10" stroke-miterlimit="1.5" stroke-linecap="round" stroke-linejoin="round" />
</g>
<defs>
<linearGradient id="paint0_linear_328_3" x1="4" y1="1100.47" x2="2686.19" y2="1100.47" gradientUnits="userSpaceOnUse">
<stop stop-color="#2E2525"/>
<stop offset="1" stop-color="#3D342D"/>
</linearGradient>
</defs>
<style>
    @media (prefers-reduced-motion: no-preference) {
      .path {
        stroke-dasharray: 15;
        stroke-dashoffset: 1500;
        animation-name: dash;
        animation-fill-mode: forwards;
        animation-timing-function: linear;
        animation-duration: 20s;
        animation-iteration-count: infinite;
        animation-direction:reverse;
      }

      @keyframes dash {
        to {
          stroke-dashoffset: 0;
        }
      }
    }
  </style>
</svg>
